<svg width="83" height="128" viewBox="0 0 83 128" fill="none" xmlns="http://www.w3.org/2000/svg">
<mask id="mask0_1841_102" style="mask-type:alpha" maskUnits="userSpaceOnUse" x="0" y="0" width="83" height="128">
<rect width="83" height="128" fill="#D9D9D9"/>
</mask>
<g mask="url(#mask0_1841_102)">
<path d="M67.48 0.24C67.48 -3.81333 66.5733 -7.12 64.76 -9.68C63 -12.24 60.7333 -14.24 57.96 -15.68C55.1867 -17.0667 52.0933 -18.0267 48.68 -18.56C45.2667 -19.04 41.9067 -19.28 38.6 -19.28C35.3467 -19.28 32.0133 -19.04 28.6 -18.56C25.1867 -18.0267 22.0933 -17.0667 19.32 -15.68C16.5467 -14.24 14.28 -12.24 12.52 -9.68C10.76 -7.12 9.88 -3.81334 9.88 0.239998C9.88 4.34666 10.76 7.65333 12.52 10.16C14.28 12.72 16.5467 14.6933 19.32 16.08C22.0933 17.52 25.1867 18.48 28.6 18.96C32.0133 19.4933 35.3733 19.76 38.68 19.76C41.9333 19.76 45.2667 19.4933 48.68 18.96C52.0933 18.48 55.1867 17.52 57.96 16.08C60.7333 14.6933 63 12.72 64.76 10.16C66.5733 7.65333 67.48 4.34667 67.48 0.24ZM63.24 0.24C63.24 3.44 62.4133 6 60.76 7.92C59.1067 9.84 57.0533 11.28 54.6 12.24C52.1467 13.2533 49.48 13.92 46.6 14.24C43.72 14.56 41.08 14.72 38.68 14.72C36.2267 14.72 33.56 14.56 30.68 14.24C27.8533 13.92 25.1867 13.2533 22.68 12.24C20.2267 11.28 18.1733 9.84 16.52 7.92C14.8667 6 14.04 3.44 14.04 0.239998C14.04 -2.96 14.8667 -5.52 16.52 -7.44C18.1733 -9.36 20.2267 -10.8267 22.68 -11.84C25.1867 -12.8 27.8533 -13.44 30.68 -13.76C33.56 -14.08 36.2267 -14.24 38.68 -14.24C41.08 -14.24 43.72 -14.08 46.6 -13.76C49.48 -13.44 52.1467 -12.8 54.6 -11.84C57.0533 -10.8267 59.1067 -9.36 60.76 -7.44C62.4133 -5.52 63.24 -2.96 63.24 0.24ZM67.48 52.6931C67.48 48.6398 66.5733 45.3331 64.76 42.7731C63 40.2131 60.7333 38.2131 57.96 36.7731C55.1867 35.3865 52.0933 34.4265 48.68 33.8931C45.2667 33.4131 41.9067 33.1731 38.6 33.1731C35.3467 33.1731 32.0133 33.4131 28.6 33.8931C25.1867 34.4265 22.0933 35.3865 19.32 36.7731C16.5467 38.2131 14.28 40.2131 12.52 42.7731C10.76 45.3331 9.88 48.6398 9.88 52.6931C9.88 56.7998 10.76 60.1065 12.52 62.6131C14.28 65.1731 16.5467 67.1465 19.32 68.5331C22.0933 69.9731 25.1867 70.9331 28.6 71.4131C32.0133 71.9465 35.3733 72.2131 38.68 72.2131C41.9333 72.2131 45.2667 71.9465 48.68 71.4131C52.0933 70.9331 55.1867 69.9731 57.96 68.5331C60.7333 67.1465 63 65.1731 64.76 62.6131C66.5733 60.1065 67.48 56.7998 67.48 52.6931ZM63.24 52.6931C63.24 55.8931 62.4133 58.4531 60.76 60.3731C59.1067 62.2931 57.0533 63.7331 54.6 64.6931C52.1467 65.7065 49.48 66.3731 46.6 66.6931C43.72 67.0131 41.08 67.1731 38.68 67.1731C36.2267 67.1731 33.56 67.0131 30.68 66.6931C27.8533 66.3731 25.1867 65.7065 22.68 64.6931C20.2267 63.7331 18.1733 62.2931 16.52 60.3731C14.8667 58.4531 14.04 55.8931 14.04 52.6931C14.04 49.4931 14.8667 46.9331 16.52 45.0131C18.1733 43.0931 20.2267 41.6265 22.68 40.6131C25.1867 39.6531 27.8533 39.0131 30.68 38.6931C33.56 38.3731 36.2267 38.2131 38.68 38.2131C41.08 38.2131 43.72 38.3731 46.6 38.6931C49.48 39.0131 52.1467 39.6531 54.6 40.6131C57.0533 41.6265 59.1067 43.0931 60.76 45.0131C62.4133 46.9331 63.24 49.4931 63.24 52.6931ZM56.2 90.6662L52.6 90.6662L52.6 105.466L11 105.466L11 110.506L67 110.506L67 106.426C64.44 106.053 62.44 105.413 61 104.506C59.6133 103.653 58.5733 102.56 57.88 101.226C57.1867 99.9462 56.7333 98.3996 56.52 96.5862C56.36 94.8262 56.2533 92.8529 56.2 90.6662Z" fill="#C8C8C8"/>
</g>
</svg>
