<svg width="656" height="58" viewBox="0 0 656 58" fill="none" xmlns="http://www.w3.org/2000/svg">
<mask id="mask0_1921_518" style="mask-type:alpha" maskUnits="userSpaceOnUse" x="0" y="0" width="656" height="58">
<rect width="656" height="58" fill="#D9D9D9"/>
</mask>
<g mask="url(#mask0_1921_518)">
<path opacity="0.1" d="M-267.8 28V5.52L-247.48 5.52C-243.32 5.52 -240.227 6.53333 -238.2 8.56C-236.173 10.5867 -235.16 13.36 -235.16 16.88C-235.16 18.64 -235.507 20.2133 -236.2 21.6C-236.84 22.9333 -237.72 24.08 -238.84 25.04C-239.96 26 -241.267 26.7467 -242.76 27.28C-244.253 27.76 -245.827 28 -247.48 28H-267.8ZM-273.24 0.879996V58H-267.8V32.64H-247.16C-244.6 32.5333 -242.6 32.96 -241.16 33.92C-239.667 34.88 -238.547 36.16 -237.8 37.76C-237 39.3067 -236.493 41.0933 -236.28 43.12C-236.013 45.0933 -235.827 47.0933 -235.72 49.12C-235.667 49.7067 -235.613 50.4 -235.56 51.2C-235.507 52 -235.453 52.8267 -235.4 53.68C-235.293 54.48 -235.16 55.28 -235 56.08C-234.787 56.8267 -234.52 57.4667 -234.2 58H-228.2C-228.787 57.3067 -229.267 56.3467 -229.64 55.12C-229.96 53.84 -230.2 52.5067 -230.36 51.12C-230.52 49.68 -230.627 48.2667 -230.68 46.88C-230.733 45.4933 -230.787 44.32 -230.84 43.36C-230.947 41.6533 -231.187 40.08 -231.56 38.64C-231.88 37.1467 -232.44 35.84 -233.24 34.72C-233.987 33.6 -234.973 32.6933 -236.2 32C-237.427 31.2533 -238.973 30.7467 -240.84 30.48V30.32C-237.16 29.5733 -234.387 27.8667 -232.52 25.2C-230.653 22.5333 -229.72 19.3867 -229.72 15.76C-229.72 13.2 -230.2 10.9867 -231.16 9.12C-232.067 7.2 -233.32 5.65333 -234.92 4.48C-236.467 3.25333 -238.307 2.34666 -240.44 1.76C-242.52 1.17333 -244.733 0.879996 -247.08 0.879996L-273.24 0.879996ZM-191.401 19.76C-189.001 19.76 -186.894 20.2667 -185.081 21.28C-183.267 22.2933 -181.774 23.6267 -180.601 25.28C-179.374 26.9333 -178.467 28.8267 -177.881 30.96C-177.241 33.04 -176.921 35.1733 -176.921 37.36C-176.921 39.5467 -177.241 41.7067 -177.881 43.84C-178.467 45.92 -179.374 47.7867 -180.601 49.44C-181.774 51.0933 -183.267 52.4267 -185.081 53.44C-186.894 54.4533 -189.001 54.96 -191.401 54.96C-193.801 54.96 -195.907 54.4533 -197.721 53.44C-199.534 52.4267 -201.054 51.0933 -202.281 49.44C-203.454 47.7867 -204.361 45.92 -205.001 43.84C-205.587 41.7067 -205.881 39.5467 -205.881 37.36C-205.881 35.1733 -205.587 33.04 -205.001 30.96C-204.361 28.8267 -203.454 26.9333 -202.281 25.28C-201.054 23.6267 -199.534 22.2933 -197.721 21.28C-195.907 20.2667 -193.801 19.76 -191.401 19.76ZM-191.401 15.52C-194.547 15.52 -197.347 16.1067 -199.801 17.28C-202.201 18.4533 -204.227 20.0267 -205.881 22C-207.534 23.9733 -208.787 26.2933 -209.641 28.96C-210.494 31.5733 -210.921 34.3733 -210.921 37.36C-210.921 40.3467 -210.494 43.1733 -209.641 45.84C-208.787 48.4533 -207.534 50.7467 -205.881 52.72C-204.227 54.6933 -202.201 56.2667 -199.801 57.44C-197.347 58.56 -194.547 59.12 -191.401 59.12C-188.254 59.12 -185.481 58.56 -183.081 57.44C-180.627 56.2667 -178.574 54.6933 -176.921 52.72C-175.267 50.7467 -174.014 48.4533 -173.161 45.84C-172.307 43.1733 -171.881 40.3467 -171.881 37.36C-171.881 34.3733 -172.307 31.5733 -173.161 28.96C-174.014 26.2933 -175.267 23.9733 -176.921 22C-178.574 20.0267 -180.627 18.4533 -183.081 17.28C-185.481 16.1067 -188.254 15.52 -191.401 15.52ZM-134.947 19.76C-132.547 19.76 -130.441 20.2667 -128.627 21.28C-126.814 22.2933 -125.321 23.6267 -124.147 25.28C-122.921 26.9333 -122.014 28.8267 -121.427 30.96C-120.787 33.04 -120.467 35.1733 -120.467 37.36C-120.467 39.5467 -120.787 41.7067 -121.427 43.84C-122.014 45.92 -122.921 47.7867 -124.147 49.44C-125.321 51.0933 -126.814 52.4267 -128.627 53.44C-130.441 54.4533 -132.547 54.96 -134.947 54.96C-137.347 54.96 -139.454 54.4533 -141.267 53.44C-143.081 52.4267 -144.601 51.0933 -145.827 49.44C-147.001 47.7867 -147.907 45.92 -148.547 43.84C-149.134 41.7067 -149.427 39.5467 -149.427 37.36C-149.427 35.1733 -149.134 33.04 -148.547 30.96C-147.907 28.8267 -147.001 26.9333 -145.827 25.28C-144.601 23.6267 -143.081 22.2933 -141.267 21.28C-139.454 20.2667 -137.347 19.76 -134.947 19.76ZM-134.947 15.52C-138.094 15.52 -140.894 16.1067 -143.347 17.28C-145.747 18.4533 -147.774 20.0267 -149.427 22C-151.081 23.9733 -152.334 26.2933 -153.187 28.96C-154.041 31.5733 -154.467 34.3733 -154.467 37.36C-154.467 40.3467 -154.041 43.1733 -153.187 45.84C-152.334 48.4533 -151.081 50.7467 -149.427 52.72C-147.774 54.6933 -145.747 56.2667 -143.347 57.44C-140.894 58.56 -138.094 59.12 -134.947 59.12C-131.801 59.12 -129.027 58.56 -126.627 57.44C-124.174 56.2667 -122.121 54.6933 -120.467 52.72C-118.814 50.7467 -117.561 48.4533 -116.707 45.84C-115.854 43.1733 -115.427 40.3467 -115.427 37.36C-115.427 34.3733 -115.854 31.5733 -116.707 28.96C-117.561 26.2933 -118.814 23.9733 -120.467 22C-122.121 20.0267 -124.174 18.4533 -126.627 17.28C-129.027 16.1067 -131.801 15.52 -134.947 15.52ZM-95.9344 16.72L-95.9344 58H-90.8944L-90.8944 34.96C-90.8944 32.7733 -90.6544 30.7733 -90.1744 28.96C-89.6944 27.0933 -88.9744 25.4933 -88.0144 24.16C-87.001 22.7733 -85.721 21.7067 -84.1744 20.96C-82.5744 20.16 -80.7077 19.76 -78.5744 19.76C-76.9744 19.76 -75.6144 20.0267 -74.4944 20.56C-73.3744 21.0933 -72.4944 21.84 -71.8544 22.8C-71.161 23.7067 -70.681 24.8 -70.4144 26.08C-70.0944 27.3067 -69.9344 28.6133 -69.9344 30L-69.9344 58H-64.8944L-64.8944 34.64C-64.8944 32.72 -64.7344 30.88 -64.4144 29.12C-64.041 27.3067 -63.4277 25.7067 -62.5744 24.32C-61.721 22.9333 -60.5744 21.84 -59.1344 21.04C-57.6944 20.1867 -55.881 19.76 -53.6944 19.76C-50.0677 19.76 -47.5344 20.6667 -46.0944 22.48C-44.6544 24.24 -43.9344 26.8267 -43.9344 30.24L-43.9344 58H-38.8944L-38.8944 30C-38.8944 20.3467 -43.4544 15.52 -52.5744 15.52C-55.2944 15.52 -57.8544 16.1867 -60.2544 17.52C-62.6544 18.8533 -64.4677 20.88 -65.6944 23.6C-66.441 20.88 -67.9344 18.8533 -70.1744 17.52C-72.361 16.1867 -74.8144 15.52 -77.5344 15.52C-80.8944 15.52 -83.6677 16.24 -85.8544 17.68C-87.9877 19.12 -89.721 21.12 -91.0544 23.68H-91.2944V16.72H-95.9344ZM18.3319 0.879996V58H23.7719V0.879996H18.3319ZM46.6263 16.72V58H51.6663V33.92C51.7196 31.8933 52.0396 30.0267 52.6263 28.32C53.2663 26.56 54.1196 25.0667 55.1863 23.84C56.3063 22.56 57.6396 21.5733 59.1863 20.88C60.7863 20.1333 62.5996 19.76 64.6263 19.76C66.6529 19.76 68.3329 20.08 69.6663 20.72C71.0529 21.36 72.1463 22.24 72.9463 23.36C73.7463 24.48 74.3063 25.8133 74.6263 27.36C74.9463 28.8533 75.1063 30.48 75.1063 32.24V58H80.1463V31.44C80.1463 28.9867 79.9063 26.7733 79.4263 24.8C78.9463 22.8267 78.1196 21.1733 76.9463 19.84C75.7729 18.4533 74.1996 17.3867 72.2263 16.64C70.3063 15.8933 67.9063 15.52 65.0263 15.52C62.0929 15.52 59.3996 16.2933 56.9463 17.84C54.4929 19.3333 52.7863 21.3333 51.8263 23.84H51.6663V16.72H46.6263ZM109.675 16.72V4.32H104.635V16.72H97.435V20.96H104.635V49.2C104.582 52.72 105.222 55.1467 106.555 56.48C107.888 57.76 110.235 58.4 113.595 58.4C114.342 58.4 115.088 58.3733 115.835 58.32C116.582 58.2667 117.328 58.24 118.075 58.24V54C116.635 54.16 115.195 54.24 113.755 54.24C111.942 54.1333 110.795 53.6267 110.315 52.72C109.888 51.76 109.675 50.4533 109.675 48.8V20.96H118.075V16.72H109.675ZM167.027 34.48H140.307C140.52 32.6133 140.947 30.8 141.587 29.04C142.28 27.2267 143.187 25.6533 144.307 24.32C145.427 22.9333 146.787 21.84 148.387 21.04C149.987 20.1867 151.827 19.76 153.907 19.76C155.934 19.76 157.747 20.1867 159.347 21.04C160.947 21.84 162.307 22.9333 163.427 24.32C164.547 25.6533 165.4 27.2 165.987 28.96C166.627 30.72 166.974 32.56 167.027 34.48ZM140.307 38.72H172.067C172.174 35.84 171.907 33.0133 171.267 30.24C170.627 27.4133 169.56 24.9333 168.067 22.8C166.627 20.6133 164.734 18.8533 162.387 17.52C160.04 16.1867 157.214 15.52 153.907 15.52C150.654 15.52 147.827 16.16 145.427 17.44C143.08 18.6667 141.16 20.32 139.667 22.4C138.174 24.4267 137.054 26.7467 136.307 29.36C135.614 31.9733 135.267 34.64 135.267 37.36C135.267 40.2933 135.614 43.0933 136.307 45.76C137.054 48.3733 138.174 50.6933 139.667 52.72C141.16 54.6933 143.08 56.2667 145.427 57.44C147.827 58.56 150.654 59.12 153.907 59.12C159.134 59.12 163.16 57.84 165.987 55.28C168.867 52.72 170.84 49.0933 171.907 44.4H166.867C166.067 47.6 164.627 50.16 162.547 52.08C160.467 54 157.587 54.96 153.907 54.96C151.507 54.96 149.454 54.4533 147.747 53.44C146.04 52.4267 144.627 51.1467 143.507 49.6C142.387 48.0533 141.56 46.32 141.027 44.4C140.547 42.4267 140.307 40.5333 140.307 38.72ZM190.831 16.72V58H195.871V36C195.871 33.8133 196.245 31.8133 196.991 30C197.738 28.1333 198.778 26.5333 200.111 25.2C201.498 23.8667 203.125 22.8533 204.991 22.16C206.858 21.4133 208.938 21.0933 211.231 21.2V16.16C207.498 16 204.271 16.8267 201.551 18.64C198.885 20.4533 196.911 23.04 195.631 26.4H195.471V16.72H190.831ZM228.146 0.879996V8.96L233.186 8.96V0.879996L228.146 0.879996ZM228.146 16.72V58H233.186V16.72L228.146 16.72ZM272.271 19.76C274.671 19.76 276.778 20.2667 278.591 21.28C280.405 22.2933 281.898 23.6267 283.071 25.28C284.298 26.9333 285.205 28.8267 285.791 30.96C286.431 33.04 286.751 35.1733 286.751 37.36C286.751 39.5467 286.431 41.7067 285.791 43.84C285.205 45.92 284.298 47.7867 283.071 49.44C281.898 51.0933 280.405 52.4267 278.591 53.44C276.778 54.4533 274.671 54.96 272.271 54.96C269.871 54.96 267.765 54.4533 265.951 53.44C264.138 52.4267 262.618 51.0933 261.391 49.44C260.218 47.7867 259.311 45.92 258.671 43.84C258.085 41.7067 257.791 39.5467 257.791 37.36C257.791 35.1733 258.085 33.04 258.671 30.96C259.311 28.8267 260.218 26.9333 261.391 25.28C262.618 23.6267 264.138 22.2933 265.951 21.28C267.765 20.2667 269.871 19.76 272.271 19.76ZM272.271 15.52C269.125 15.52 266.325 16.1067 263.871 17.28C261.471 18.4533 259.445 20.0267 257.791 22C256.138 23.9733 254.885 26.2933 254.031 28.96C253.178 31.5733 252.751 34.3733 252.751 37.36C252.751 40.3467 253.178 43.1733 254.031 45.84C254.885 48.4533 256.138 50.7467 257.791 52.72C259.445 54.6933 261.471 56.2667 263.871 57.44C266.325 58.56 269.125 59.12 272.271 59.12C275.418 59.12 278.191 58.56 280.591 57.44C283.045 56.2667 285.098 54.6933 286.751 52.72C288.405 50.7467 289.658 48.4533 290.511 45.84C291.365 43.1733 291.791 40.3467 291.791 37.36C291.791 34.3733 291.365 31.5733 290.511 28.96C289.658 26.2933 288.405 23.9733 286.751 22C285.098 20.0267 283.045 18.4533 280.591 17.28C278.191 16.1067 275.418 15.52 272.271 15.52ZM311.284 16.72V58H316.324V36C316.324 33.8133 316.698 31.8133 317.444 30C318.191 28.1333 319.231 26.5333 320.564 25.2C321.951 23.8667 323.578 22.8533 325.444 22.16C327.311 21.4133 329.391 21.0933 331.684 21.2V16.16C327.951 16 324.724 16.8267 322.004 18.64C319.338 20.4533 317.364 23.04 316.084 26.4H315.924V16.72H311.284ZM389.184 28V5.52L409.504 5.52C413.664 5.52 416.758 6.53333 418.784 8.56C420.811 10.5867 421.824 13.36 421.824 16.88C421.824 18.64 421.478 20.2133 420.784 21.6C420.144 22.9333 419.264 24.08 418.144 25.04C417.024 26 415.718 26.7467 414.224 27.28C412.731 27.76 411.158 28 409.504 28H389.184ZM383.744 0.879996V58L389.184 58V32.64H409.824C412.384 32.5333 414.384 32.96 415.824 33.92C417.318 34.88 418.438 36.16 419.184 37.76C419.984 39.3067 420.491 41.0933 420.704 43.12C420.971 45.0933 421.158 47.0933 421.264 49.12C421.318 49.7067 421.371 50.4 421.424 51.2C421.478 52 421.531 52.8267 421.584 53.68C421.691 54.48 421.824 55.28 421.984 56.08C422.198 56.8267 422.464 57.4667 422.784 58H428.784C428.198 57.3067 427.718 56.3467 427.344 55.12C427.024 53.84 426.784 52.5067 426.624 51.12C426.464 49.68 426.358 48.2667 426.304 46.88C426.251 45.4933 426.198 44.32 426.144 43.36C426.038 41.6533 425.798 40.08 425.424 38.64C425.104 37.1467 424.544 35.84 423.744 34.72C422.998 33.6 422.011 32.6933 420.784 32C419.558 31.2533 418.011 30.7467 416.144 30.48V30.32C419.824 29.5733 422.598 27.8667 424.464 25.2C426.331 22.5333 427.264 19.3867 427.264 15.76C427.264 13.2 426.784 10.9867 425.824 9.12C424.918 7.2 423.664 5.65333 422.064 4.48C420.518 3.25333 418.678 2.34666 416.544 1.76C414.464 1.17333 412.251 0.879996 409.904 0.879996L383.744 0.879996ZM465.584 19.76C467.984 19.76 470.09 20.2667 471.904 21.28C473.717 22.2933 475.21 23.6267 476.384 25.28C477.61 26.9333 478.517 28.8267 479.104 30.96C479.744 33.04 480.064 35.1733 480.064 37.36C480.064 39.5467 479.744 41.7067 479.104 43.84C478.517 45.92 477.61 47.7867 476.384 49.44C475.21 51.0933 473.717 52.4267 471.904 53.44C470.09 54.4533 467.984 54.96 465.584 54.96C463.184 54.96 461.077 54.4533 459.264 53.44C457.45 52.4267 455.93 51.0933 454.704 49.44C453.53 47.7867 452.624 45.92 451.984 43.84C451.397 41.7067 451.104 39.5467 451.104 37.36C451.104 35.1733 451.397 33.04 451.984 30.96C452.624 28.8267 453.53 26.9333 454.704 25.28C455.93 23.6267 457.45 22.2933 459.264 21.28C461.077 20.2667 463.184 19.76 465.584 19.76ZM465.584 15.52C462.437 15.52 459.637 16.1067 457.184 17.28C454.784 18.4533 452.757 20.0267 451.104 22C449.45 23.9733 448.197 26.2933 447.344 28.96C446.49 31.5733 446.064 34.3733 446.064 37.36C446.064 40.3467 446.49 43.1733 447.344 45.84C448.197 48.4533 449.45 50.7467 451.104 52.72C452.757 54.6933 454.784 56.2667 457.184 57.44C459.637 58.56 462.437 59.12 465.584 59.12C468.73 59.12 471.504 58.56 473.904 57.44C476.357 56.2667 478.41 54.6933 480.064 52.72C481.717 50.7467 482.97 48.4533 483.824 45.84C484.677 43.1733 485.104 40.3467 485.104 37.36C485.104 34.3733 484.677 31.5733 483.824 28.96C482.97 26.2933 481.717 23.9733 480.064 22C478.41 20.0267 476.357 18.4533 473.904 17.28C471.504 16.1067 468.73 15.52 465.584 15.52ZM522.037 19.76C524.437 19.76 526.544 20.2667 528.357 21.28C530.17 22.2933 531.664 23.6267 532.837 25.28C534.064 26.9333 534.97 28.8267 535.557 30.96C536.197 33.04 536.517 35.1733 536.517 37.36C536.517 39.5467 536.197 41.7067 535.557 43.84C534.97 45.92 534.064 47.7867 532.837 49.44C531.664 51.0933 530.17 52.4267 528.357 53.44C526.544 54.4533 524.437 54.96 522.037 54.96C519.637 54.96 517.53 54.4533 515.717 53.44C513.904 52.4267 512.384 51.0933 511.157 49.44C509.984 47.7867 509.077 45.92 508.437 43.84C507.85 41.7067 507.557 39.5467 507.557 37.36C507.557 35.1733 507.85 33.04 508.437 30.96C509.077 28.8267 509.984 26.9333 511.157 25.28C512.384 23.6267 513.904 22.2933 515.717 21.28C517.53 20.2667 519.637 19.76 522.037 19.76ZM522.037 15.52C518.89 15.52 516.09 16.1067 513.637 17.28C511.237 18.4533 509.21 20.0267 507.557 22C505.904 23.9733 504.65 26.2933 503.797 28.96C502.944 31.5733 502.517 34.3733 502.517 37.36C502.517 40.3467 502.944 43.1733 503.797 45.84C504.65 48.4533 505.904 50.7467 507.557 52.72C509.21 54.6933 511.237 56.2667 513.637 57.44C516.09 58.56 518.89 59.12 522.037 59.12C525.184 59.12 527.957 58.56 530.357 57.44C532.81 56.2667 534.864 54.6933 536.517 52.72C538.17 50.7467 539.424 48.4533 540.277 45.84C541.13 43.1733 541.557 40.3467 541.557 37.36C541.557 34.3733 541.13 31.5733 540.277 28.96C539.424 26.2933 538.17 23.9733 536.517 22C534.864 20.0267 532.81 18.4533 530.357 17.28C527.957 16.1067 525.184 15.52 522.037 15.52ZM561.05 16.72V58H566.09V34.96C566.09 32.7733 566.33 30.7733 566.81 28.96C567.29 27.0933 568.01 25.4933 568.97 24.16C569.983 22.7733 571.263 21.7067 572.81 20.96C574.41 20.16 576.277 19.76 578.41 19.76C580.01 19.76 581.37 20.0267 582.49 20.56C583.61 21.0933 584.49 21.84 585.13 22.8C585.823 23.7067 586.303 24.8 586.57 26.08C586.89 27.3067 587.05 28.6133 587.05 30V58H592.09V34.64C592.09 32.72 592.25 30.88 592.57 29.12C592.943 27.3067 593.557 25.7067 594.41 24.32C595.263 22.9333 596.41 21.84 597.85 21.04C599.29 20.1867 601.103 19.76 603.29 19.76C606.917 19.76 609.45 20.6667 610.89 22.48C612.33 24.24 613.05 26.8267 613.05 30.24V58H618.09V30C618.09 20.3467 613.53 15.52 604.41 15.52C601.69 15.52 599.13 16.1867 596.73 17.52C594.33 18.8533 592.517 20.88 591.29 23.6C590.543 20.88 589.05 18.8533 586.81 17.52C584.623 16.1867 582.17 15.52 579.45 15.52C576.09 15.52 573.317 16.24 571.13 17.68C568.997 19.12 567.263 21.12 565.93 23.68H565.69V16.72H561.05ZM675.316 0.879996V58H680.756V0.879996H675.316ZM703.611 16.72V58H708.651V33.92C708.704 31.8933 709.024 30.0267 709.611 28.32C710.251 26.56 711.104 25.0667 712.171 23.84C713.291 22.56 714.624 21.5733 716.171 20.88C717.771 20.1333 719.584 19.76 721.611 19.76C723.637 19.76 725.317 20.08 726.651 20.72C728.037 21.36 729.131 22.24 729.931 23.36C730.731 24.48 731.291 25.8133 731.611 27.36C731.931 28.8533 732.091 30.48 732.091 32.24V58H737.131V31.44C737.131 28.9867 736.891 26.7733 736.411 24.8C735.931 22.8267 735.104 21.1733 733.931 19.84C732.757 18.4533 731.184 17.3867 729.211 16.64C727.291 15.8933 724.891 15.52 722.011 15.52C719.077 15.52 716.384 16.2933 713.931 17.84C711.477 19.3333 709.771 21.3333 708.811 23.84H708.651V16.72H703.611ZM766.659 16.72V4.32H761.619V16.72L754.419 16.72V20.96L761.619 20.96V49.2C761.566 52.72 762.206 55.1467 763.539 56.48C764.873 57.76 767.219 58.4 770.579 58.4C771.326 58.4 772.073 58.3733 772.819 58.32C773.566 58.2667 774.313 58.24 775.059 58.24V54C773.619 54.16 772.179 54.24 770.739 54.24C768.926 54.1333 767.779 53.6267 767.299 52.72C766.873 51.76 766.659 50.4533 766.659 48.8V20.96H775.059V16.72H766.659ZM824.011 34.48H797.291C797.505 32.6133 797.931 30.8 798.571 29.04C799.265 27.2267 800.171 25.6533 801.291 24.32C802.411 22.9333 803.771 21.84 805.371 21.04C806.971 20.1867 808.811 19.76 810.891 19.76C812.918 19.76 814.731 20.1867 816.331 21.04C817.931 21.84 819.291 22.9333 820.411 24.32C821.531 25.6533 822.385 27.2 822.971 28.96C823.611 30.72 823.958 32.56 824.011 34.48ZM797.291 38.72L829.051 38.72C829.158 35.84 828.891 33.0133 828.251 30.24C827.611 27.4133 826.545 24.9333 825.051 22.8C823.611 20.6133 821.718 18.8533 819.371 17.52C817.025 16.1867 814.198 15.52 810.891 15.52C807.638 15.52 804.811 16.16 802.411 17.44C800.065 18.6667 798.145 20.32 796.651 22.4C795.158 24.4267 794.038 26.7467 793.291 29.36C792.598 31.9733 792.251 34.64 792.251 37.36C792.251 40.2933 792.598 43.0933 793.291 45.76C794.038 48.3733 795.158 50.6933 796.651 52.72C798.145 54.6933 800.065 56.2667 802.411 57.44C804.811 58.56 807.638 59.12 810.891 59.12C816.118 59.12 820.145 57.84 822.971 55.28C825.851 52.72 827.825 49.0933 828.891 44.4L823.851 44.4C823.051 47.6 821.611 50.16 819.531 52.08C817.451 54 814.571 54.96 810.891 54.96C808.491 54.96 806.438 54.4533 804.731 53.44C803.025 52.4267 801.611 51.1467 800.491 49.6C799.371 48.0533 798.545 46.32 798.011 44.4C797.531 42.4267 797.291 40.5333 797.291 38.72ZM847.816 16.72V58H852.856V36C852.856 33.8133 853.229 31.8133 853.976 30C854.722 28.1333 855.762 26.5333 857.096 25.2C858.482 23.8667 860.109 22.8533 861.976 22.16C863.842 21.4133 865.922 21.0933 868.216 21.2V16.16C864.482 16 861.256 16.8267 858.536 18.64C855.869 20.4533 853.896 23.04 852.616 26.4H852.456V16.72H847.816ZM885.13 0.879996V8.96H890.17V0.879996H885.13ZM885.13 16.72V58H890.17V16.72H885.13ZM929.256 19.76C931.656 19.76 933.762 20.2667 935.576 21.28C937.389 22.2933 938.882 23.6267 940.056 25.28C941.282 26.9333 942.189 28.8267 942.776 30.96C943.416 33.04 943.736 35.1733 943.736 37.36C943.736 39.5467 943.416 41.7067 942.776 43.84C942.189 45.92 941.282 47.7867 940.056 49.44C938.882 51.0933 937.389 52.4267 935.576 53.44C933.762 54.4533 931.656 54.96 929.256 54.96C926.856 54.96 924.749 54.4533 922.936 53.44C921.122 52.4267 919.602 51.0933 918.376 49.44C917.202 47.7867 916.296 45.92 915.656 43.84C915.069 41.7067 914.776 39.5467 914.776 37.36C914.776 35.1733 915.069 33.04 915.656 30.96C916.296 28.8267 917.202 26.9333 918.376 25.28C919.602 23.6267 921.122 22.2933 922.936 21.28C924.749 20.2667 926.856 19.76 929.256 19.76ZM929.256 15.52C926.109 15.52 923.309 16.1067 920.856 17.28C918.456 18.4533 916.429 20.0267 914.776 22C913.122 23.9733 911.869 26.2933 911.016 28.96C910.162 31.5733 909.736 34.3733 909.736 37.36C909.736 40.3467 910.162 43.1733 911.016 45.84C911.869 48.4533 913.122 50.7467 914.776 52.72C916.429 54.6933 918.456 56.2667 920.856 57.44C923.309 58.56 926.109 59.12 929.256 59.12C932.402 59.12 935.176 58.56 937.576 57.44C940.029 56.2667 942.082 54.6933 943.736 52.72C945.389 50.7467 946.642 48.4533 947.496 45.84C948.349 43.1733 948.776 40.3467 948.776 37.36C948.776 34.3733 948.349 31.5733 947.496 28.96C946.642 26.2933 945.389 23.9733 943.736 22C942.082 20.0267 940.029 18.4533 937.576 17.28C935.176 16.1067 932.402 15.52 929.256 15.52ZM968.269 16.72V58H973.309V36C973.309 33.8133 973.682 31.8133 974.429 30C975.175 28.1333 976.215 26.5333 977.549 25.2C978.935 23.8667 980.562 22.8533 982.429 22.16C984.295 21.4133 986.375 21.0933 988.669 21.2V16.16C984.935 16 981.709 16.8267 978.989 18.64C976.322 20.4533 974.349 23.04 973.069 26.4H972.909V16.72H968.269ZM1046.17 28V5.52H1066.49C1070.65 5.52 1073.74 6.53333 1075.77 8.56C1077.8 10.5867 1078.81 13.36 1078.81 16.88C1078.81 18.64 1078.46 20.2133 1077.77 21.6C1077.13 22.9333 1076.25 24.08 1075.13 25.04C1074.01 26 1072.7 26.7467 1071.21 27.28C1069.72 27.76 1068.14 28 1066.49 28H1046.17ZM1040.73 0.879996V58H1046.17V32.64H1066.81C1069.37 32.5333 1071.37 32.96 1072.81 33.92C1074.3 34.88 1075.42 36.16 1076.17 37.76C1076.97 39.3067 1077.48 41.0933 1077.69 43.12C1077.96 45.0933 1078.14 47.0933 1078.25 49.12C1078.3 49.7067 1078.36 50.4 1078.41 51.2C1078.46 52 1078.52 52.8267 1078.57 53.68C1078.68 54.48 1078.81 55.28 1078.97 56.08C1079.18 56.8267 1079.45 57.4667 1079.77 58H1085.77C1085.18 57.3067 1084.7 56.3467 1084.33 55.12C1084.01 53.84 1083.77 52.5067 1083.61 51.12C1083.45 49.68 1083.34 48.2667 1083.29 46.88C1083.24 45.4933 1083.18 44.32 1083.13 43.36C1083.02 41.6533 1082.78 40.08 1082.41 38.64C1082.09 37.1467 1081.53 35.84 1080.73 34.72C1079.98 33.6 1079 32.6933 1077.77 32C1076.54 31.2533 1075 30.7467 1073.13 30.48V30.32C1076.81 29.5733 1079.58 27.8667 1081.45 25.2C1083.32 22.5333 1084.25 19.3867 1084.25 15.76C1084.25 13.2 1083.77 10.9867 1082.81 9.12C1081.9 7.2 1080.65 5.65333 1079.05 4.48C1077.5 3.25333 1075.66 2.34666 1073.53 1.76C1071.45 1.17333 1069.24 0.879996 1066.89 0.879996H1040.73ZM1122.57 19.76C1124.97 19.76 1127.07 20.2667 1128.89 21.28C1130.7 22.2933 1132.19 23.6267 1133.37 25.28C1134.59 26.9333 1135.5 28.8267 1136.09 30.96C1136.73 33.04 1137.05 35.1733 1137.05 37.36C1137.05 39.5467 1136.73 41.7067 1136.09 43.84C1135.5 45.92 1134.59 47.7867 1133.37 49.44C1132.19 51.0933 1130.7 52.4267 1128.89 53.44C1127.07 54.4533 1124.97 54.96 1122.57 54.96C1120.17 54.96 1118.06 54.4533 1116.25 53.44C1114.43 52.4267 1112.91 51.0933 1111.69 49.44C1110.51 47.7867 1109.61 45.92 1108.97 43.84C1108.38 41.7067 1108.09 39.5467 1108.09 37.36C1108.09 35.1733 1108.38 33.04 1108.97 30.96C1109.61 28.8267 1110.51 26.9333 1111.69 25.28C1112.91 23.6267 1114.43 22.2933 1116.25 21.28C1118.06 20.2667 1120.17 19.76 1122.57 19.76ZM1122.57 15.52C1119.42 15.52 1116.62 16.1067 1114.17 17.28C1111.77 18.4533 1109.74 20.0267 1108.09 22C1106.43 23.9733 1105.18 26.2933 1104.33 28.96C1103.47 31.5733 1103.05 34.3733 1103.05 37.36C1103.05 40.3467 1103.47 43.1733 1104.33 45.84C1105.18 48.4533 1106.43 50.7467 1108.09 52.72C1109.74 54.6933 1111.77 56.2667 1114.17 57.44C1116.62 58.56 1119.42 59.12 1122.57 59.12C1125.71 59.12 1128.49 58.56 1130.89 57.44C1133.34 56.2667 1135.39 54.6933 1137.05 52.72C1138.7 50.7467 1139.95 48.4533 1140.81 45.84C1141.66 43.1733 1142.09 40.3467 1142.09 37.36C1142.09 34.3733 1141.66 31.5733 1140.81 28.96C1139.95 26.2933 1138.7 23.9733 1137.05 22C1135.39 20.0267 1133.34 18.4533 1130.89 17.28C1128.49 16.1067 1125.71 15.52 1122.57 15.52ZM1179.02 19.76C1181.42 19.76 1183.53 20.2667 1185.34 21.28C1187.15 22.2933 1188.65 23.6267 1189.82 25.28C1191.05 26.9333 1191.95 28.8267 1192.54 30.96C1193.18 33.04 1193.5 35.1733 1193.5 37.36C1193.5 39.5467 1193.18 41.7067 1192.54 43.84C1191.95 45.92 1191.05 47.7867 1189.82 49.44C1188.65 51.0933 1187.15 52.4267 1185.34 53.44C1183.53 54.4533 1181.42 54.96 1179.02 54.96C1176.62 54.96 1174.51 54.4533 1172.7 53.44C1170.89 52.4267 1169.37 51.0933 1168.14 49.44C1166.97 47.7867 1166.06 45.92 1165.42 43.84C1164.83 41.7067 1164.54 39.5467 1164.54 37.36C1164.54 35.1733 1164.83 33.04 1165.42 30.96C1166.06 28.8267 1166.97 26.9333 1168.14 25.28C1169.37 23.6267 1170.89 22.2933 1172.7 21.28C1174.51 20.2667 1176.62 19.76 1179.02 19.76ZM1179.02 15.52C1175.87 15.52 1173.07 16.1067 1170.62 17.28C1168.22 18.4533 1166.19 20.0267 1164.54 22C1162.89 23.9733 1161.63 26.2933 1160.78 28.96C1159.93 31.5733 1159.5 34.3733 1159.5 37.36C1159.5 40.3467 1159.93 43.1733 1160.78 45.84C1161.63 48.4533 1162.89 50.7467 1164.54 52.72C1166.19 54.6933 1168.22 56.2667 1170.62 57.44C1173.07 58.56 1175.87 59.12 1179.02 59.12C1182.17 59.12 1184.94 58.56 1187.34 57.44C1189.79 56.2667 1191.85 54.6933 1193.5 52.72C1195.15 50.7467 1196.41 48.4533 1197.26 45.84C1198.11 43.1733 1198.54 40.3467 1198.54 37.36C1198.54 34.3733 1198.11 31.5733 1197.26 28.96C1196.41 26.2933 1195.15 23.9733 1193.5 22C1191.85 20.0267 1189.79 18.4533 1187.34 17.28C1184.94 16.1067 1182.17 15.52 1179.02 15.52ZM1218.03 16.72V58H1223.07V34.96C1223.07 32.7733 1223.31 30.7733 1223.79 28.96C1224.27 27.0933 1224.99 25.4933 1225.95 24.16C1226.97 22.7733 1228.25 21.7067 1229.79 20.96C1231.39 20.16 1233.26 19.76 1235.39 19.76C1236.99 19.76 1238.35 20.0267 1239.47 20.56C1240.59 21.0933 1241.47 21.84 1242.11 22.8C1242.81 23.7067 1243.29 24.8 1243.55 26.08C1243.87 27.3067 1244.03 28.6133 1244.03 30V58H1249.07V34.64C1249.07 32.72 1249.23 30.88 1249.55 29.12C1249.93 27.3067 1250.54 25.7067 1251.39 24.32C1252.25 22.9333 1253.39 21.84 1254.83 21.04C1256.27 20.1867 1258.09 19.76 1260.27 19.76C1263.9 19.76 1266.43 20.6667 1267.87 22.48C1269.31 24.24 1270.03 26.8267 1270.03 30.24V58H1275.07V30C1275.07 20.3467 1270.51 15.52 1261.39 15.52C1258.67 15.52 1256.11 16.1867 1253.71 17.52C1251.31 18.8533 1249.5 20.88 1248.27 23.6C1247.53 20.88 1246.03 18.8533 1243.79 17.52C1241.61 16.1867 1239.15 15.52 1236.43 15.52C1233.07 15.52 1230.3 16.24 1228.11 17.68C1225.98 19.12 1224.25 21.12 1222.91 23.68H1222.67V16.72H1218.03ZM1332.3 0.879996V58H1337.74V0.879996L1332.3 0.879996ZM1360.6 16.72V58H1365.64V33.92C1365.69 31.8933 1366.01 30.0267 1366.6 28.32C1367.24 26.56 1368.09 25.0667 1369.16 23.84C1370.28 22.56 1371.61 21.5733 1373.16 20.88C1374.76 20.1333 1376.57 19.76 1378.6 19.76C1380.62 19.76 1382.3 20.08 1383.64 20.72C1385.02 21.36 1386.12 22.24 1386.92 23.36C1387.72 24.48 1388.28 25.8133 1388.6 27.36C1388.92 28.8533 1389.08 30.48 1389.08 32.24V58H1394.12V31.44C1394.12 28.9867 1393.88 26.7733 1393.4 24.8C1392.92 22.8267 1392.09 21.1733 1390.92 19.84C1389.74 18.4533 1388.17 17.3867 1386.2 16.64C1384.28 15.8933 1381.88 15.52 1379 15.52C1376.06 15.52 1373.37 16.2933 1370.92 17.84C1368.46 19.3333 1366.76 21.3333 1365.8 23.84H1365.64V16.72H1360.6ZM1423.64 16.72V4.32L1418.6 4.32V16.72H1411.4V20.96H1418.6V49.2C1418.55 52.72 1419.19 55.1467 1420.52 56.48C1421.86 57.76 1424.2 58.4 1427.56 58.4C1428.31 58.4 1429.06 58.3733 1429.8 58.32C1430.55 58.2667 1431.3 58.24 1432.04 58.24V54C1430.6 54.16 1429.16 54.24 1427.72 54.24C1425.91 54.1333 1424.76 53.6267 1424.28 52.72C1423.86 51.76 1423.64 50.4533 1423.64 48.8V20.96H1432.04V16.72H1423.64ZM1481 34.48H1454.28C1454.49 32.6133 1454.92 30.8 1455.56 29.04C1456.25 27.2267 1457.16 25.6533 1458.28 24.32C1459.4 22.9333 1460.76 21.84 1462.36 21.04C1463.96 20.1867 1465.8 19.76 1467.88 19.76C1469.9 19.76 1471.72 20.1867 1473.32 21.04C1474.92 21.84 1476.28 22.9333 1477.4 24.32C1478.52 25.6533 1479.37 27.2 1479.96 28.96C1480.6 30.72 1480.94 32.56 1481 34.48ZM1454.28 38.72H1486.04C1486.14 35.84 1485.88 33.0133 1485.24 30.24C1484.6 27.4133 1483.53 24.9333 1482.04 22.8C1480.6 20.6133 1478.7 18.8533 1476.36 17.52C1474.01 16.1867 1471.18 15.52 1467.88 15.52C1464.62 15.52 1461.8 16.16 1459.4 17.44C1457.05 18.6667 1455.13 20.32 1453.64 22.4C1452.14 24.4267 1451.02 26.7467 1450.28 29.36C1449.58 31.9733 1449.24 34.64 1449.24 37.36C1449.24 40.2933 1449.58 43.0933 1450.28 45.76C1451.02 48.3733 1452.14 50.6933 1453.64 52.72C1455.13 54.6933 1457.05 56.2667 1459.4 57.44C1461.8 58.56 1464.62 59.12 1467.88 59.12C1473.1 59.12 1477.13 57.84 1479.96 55.28C1482.84 52.72 1484.81 49.0933 1485.88 44.4H1480.84C1480.04 47.6 1478.6 50.16 1476.52 52.08C1474.44 54 1471.56 54.96 1467.88 54.96C1465.48 54.96 1463.42 54.4533 1461.72 53.44C1460.01 52.4267 1458.6 51.1467 1457.48 49.6C1456.36 48.0533 1455.53 46.32 1455 44.4C1454.52 42.4267 1454.28 40.5333 1454.28 38.72ZM1504.8 16.72V58H1509.84V36C1509.84 33.8133 1510.21 31.8133 1510.96 30C1511.71 28.1333 1512.75 26.5333 1514.08 25.2C1515.47 23.8667 1517.09 22.8533 1518.96 22.16C1520.83 21.4133 1522.91 21.0933 1525.2 21.2V16.16C1521.47 16 1518.24 16.8267 1515.52 18.64C1512.85 20.4533 1510.88 23.04 1509.6 26.4H1509.44V16.72H1504.8ZM1542.11 0.879996V8.96H1547.15V0.879996H1542.11ZM1542.11 16.72V58H1547.15V16.72H1542.11ZM1586.24 19.76C1588.64 19.76 1590.75 20.2667 1592.56 21.28C1594.37 22.2933 1595.87 23.6267 1597.04 25.28C1598.27 26.9333 1599.17 28.8267 1599.76 30.96C1600.4 33.04 1600.72 35.1733 1600.72 37.36C1600.72 39.5467 1600.4 41.7067 1599.76 43.84C1599.17 45.92 1598.27 47.7867 1597.04 49.44C1595.87 51.0933 1594.37 52.4267 1592.56 53.44C1590.75 54.4533 1588.64 54.96 1586.24 54.96C1583.84 54.96 1581.73 54.4533 1579.92 53.44C1578.11 52.4267 1576.59 51.0933 1575.36 49.44C1574.19 47.7867 1573.28 45.92 1572.64 43.84C1572.05 41.7067 1571.76 39.5467 1571.76 37.36C1571.76 35.1733 1572.05 33.04 1572.64 30.96C1573.28 28.8267 1574.19 26.9333 1575.36 25.28C1576.59 23.6267 1578.11 22.2933 1579.92 21.28C1581.73 20.2667 1583.84 19.76 1586.24 19.76ZM1586.24 15.52C1583.09 15.52 1580.29 16.1067 1577.84 17.28C1575.44 18.4533 1573.41 20.0267 1571.76 22C1570.11 23.9733 1568.85 26.2933 1568 28.96C1567.15 31.5733 1566.72 34.3733 1566.72 37.36C1566.72 40.3467 1567.15 43.1733 1568 45.84C1568.85 48.4533 1570.11 50.7467 1571.76 52.72C1573.41 54.6933 1575.44 56.2667 1577.84 57.44C1580.29 58.56 1583.09 59.12 1586.24 59.12C1589.39 59.12 1592.16 58.56 1594.56 57.44C1597.01 56.2667 1599.07 54.6933 1600.72 52.72C1602.37 50.7467 1603.63 48.4533 1604.48 45.84C1605.33 43.1733 1605.76 40.3467 1605.76 37.36C1605.76 34.3733 1605.33 31.5733 1604.48 28.96C1603.63 26.2933 1602.37 23.9733 1600.72 22C1599.07 20.0267 1597.01 18.4533 1594.56 17.28C1592.16 16.1067 1589.39 15.52 1586.24 15.52ZM1625.25 16.72V58H1630.29V36C1630.29 33.8133 1630.67 31.8133 1631.41 30C1632.16 28.1333 1633.2 26.5333 1634.53 25.2C1635.92 23.8667 1637.55 22.8533 1639.41 22.16C1641.28 21.4133 1643.36 21.0933 1645.65 21.2V16.16C1641.92 16 1638.69 16.8267 1635.97 18.64C1633.31 20.4533 1631.33 23.04 1630.05 26.4H1629.89V16.72H1625.25Z" fill="white"/>
</g>
</svg>
