<svg width="42" height="26" viewBox="0 0 42 26" fill="none" xmlns="http://www.w3.org/2000/svg">
<path d="M1 25L8.63649 13V25H15.9052" stroke="white" stroke-width="0.5"/>
<path d="M19.3672 25.0002L19.2091 24.8065L19.3672 25.2502V25.0002ZM37.539 25.0002V25.2502H37.789V25.0002H37.539ZM37.539 13.9232H37.789V13.7381L37.6119 13.6841L37.539 13.9232ZM19.5253 25.1938L28.0055 18.2707L27.6893 17.8834L19.2091 24.8065L19.5253 25.1938ZM19.3672 25.2502H37.539V24.7502H19.3672V25.2502ZM37.789 25.0002V13.9232H37.289V25.0002H37.789ZM37.6119 13.6841L19.4401 8.14563L19.2943 8.62391L37.4661 14.1624L37.6119 13.6841Z" fill="white"/>
<path d="M41 11.5L9 1" stroke="white" stroke-width="0.5"/>
</svg>
